<?xml version="1.0" encoding="utf-8"?>
<!-- Generator: Adobe Illustrator 26.5.0, SVG Export Plug-In . SVG Version: 6.00 Build 0)  -->
<svg version="1.1" id="Capa_1" xmlns="http://www.w3.org/2000/svg" xmlns:xlink="http://www.w3.org/1999/xlink" x="0px" y="0px"
	 viewBox="0 0 215.94 150.33" style="enable-background:new 0 0 215.94 150.33;" xml:space="preserve">
<style type="text/css">
	.st0{fill:#002E6D;}
	.st1{fill:#FFE800;}
	.st2{fill:#FFFFFF;}
</style>
<g>
	<path class="st0" d="M214.27,71.12c0-38.3-47.59-69.53-106.29-69.53C49.27,1.59,1.68,32.82,1.68,71.12c0,0.99-0.01,3.72-0.01,4.07
		c0,40.63,41.6,73.54,106.29,73.54c65.1,0,106.31-32.9,106.31-73.54C214.27,73.78,214.27,72.96,214.27,71.12z"/>
	<path class="st1" d="M210.2,71.08c0,36.11-45.76,65.38-102.2,65.38c-56.45,0-102.2-29.27-102.2-65.38
		c0-36.11,45.75-65.39,102.2-65.39C164.44,5.7,210.2,34.97,210.2,71.08z"/>
	<g>
		<path class="st2" d="M74.06,50.46c-0.05,0.1-1.07,1.16-0.41,2.01c1.62,2.06,6.59,3.24,11.63,2.11c3-0.67,6.84-3.73,10.57-6.69
			c4.04-3.21,8.04-6.42,12.07-7.7c4.26-1.36,6.99-0.77,8.8-0.23c1.98,0.59,4.31,1.89,8.02,4.68c6.99,5.26,35.12,29.8,39.97,34.05
			c3.91-1.77,21.3-9.25,44.93-14.46c-2.05-12.6-9.72-24.12-21.34-33.56c-16.2,6.8-35.99,10.35-55.35,0.9
			c-0.1-0.04-10.58-5-20.91-4.76c-15.36,0.36-22.01,7-29.05,14.04L74.06,50.46z"/>
		<path class="st2" d="M163.56,81.36c-0.33-0.29-33.07-28.94-40.48-34.51c-4.29-3.22-6.68-4.04-9.19-4.36
			c-1.3-0.17-3.11,0.07-4.37,0.42c-3.45,0.94-7.96,3.95-11.97,7.13c-4.15,3.3-8.06,6.41-11.69,7.23C81.24,58.3,75.58,57.07,73,55.33
			c-1.05-0.7-1.78-1.52-2.14-2.34c-0.95-2.21,0.81-3.98,1.1-4.28l9.03-9.77c1.05-1.05,2.11-2.1,3.19-3.13
			c-2.92,0.38-5.61,1.12-8.23,1.85c-3.27,0.92-6.42,1.8-9.61,1.79c-1.33,0-8.46-1.17-9.81-1.54c-8.18-2.24-15.35-4.42-26.07-9.42
			C17.63,38.06,9.04,50.01,6.56,63.18c1.84,0.49,4.82,1.37,6.07,1.65c29.06,6.46,38.11,13.12,39.76,14.51
			c1.78-1.98,4.34-3.23,7.2-3.23c3.22,0,6.11,1.62,7.87,4.12c1.67-1.31,3.96-2.44,6.93-2.44c1.35,0,2.75,0.25,4.16,0.73
			c3.28,1.13,4.97,3.31,5.85,5.28c1.1-0.5,2.45-0.86,4.04-0.86c1.56,0,3.19,0.36,4.83,1.07c5.36,2.3,6.19,7.56,5.71,11.53
			c0.38-0.05,0.77-0.06,1.16-0.06c6.35,0,11.52,5.17,11.52,11.52c0,1.97-0.5,3.82-1.38,5.44c1.73,0.97,6.13,3.17,10,2.68
			c3.09-0.39,4.26-1.45,4.69-2.04c0.29-0.41,0.59-0.88,0.31-1.23l-8.2-9.11c0,0-1.35-1.28-0.9-1.77c0.46-0.51,1.29,0.22,1.89,0.72
			c4.17,3.49,9.27,8.75,9.27,8.75c0.08,0.05,0.42,0.72,2.31,1.06c1.62,0.29,4.49,0.12,6.48-1.51c0.5-0.41,1-0.93,1.42-1.46
			c-0.03,0.02-0.06,0.06-0.09,0.07c2.1-2.69-0.23-5.4-0.23-5.4l-9.57-10.75c0,0-1.37-1.27-0.9-1.78c0.42-0.44,1.3,0.22,1.9,0.72
			c3.03,2.53,7.32,6.83,11.42,10.85c0.8,0.59,4.41,2.82,9.18-0.32c2.9-1.9,3.48-4.24,3.4-6c-0.2-2.33-2.02-4-2.02-4l-13.08-13.15
			c0,0-1.38-1.18-0.89-1.78c0.4-0.5,1.3,0.22,1.88,0.72c4.17,3.49,15.44,13.82,15.44,13.82c0.16,0.11,4.05,2.89,8.87-0.18
			c1.72-1.1,2.82-2.76,2.92-4.69C165.92,83.34,163.56,81.36,163.56,81.36z"/>
		<path class="st2" d="M100.13,98.02c-2.03-0.02-4.25,1.18-4.54,1.01c-0.16-0.11,0.12-0.92,0.32-1.39c0.19-0.47,2.86-8.5-3.64-11.29
			c-4.98-2.14-8.02,0.27-9.07,1.35c-0.28,0.29-0.4,0.26-0.43-0.1c-0.1-1.44-0.75-5.36-5.05-6.67c-6.14-1.88-10.09,2.41-11.1,3.95
			c-0.45-3.5-3.41-6.22-7.04-6.22c-3.94,0-7.13,3.19-7.14,7.13c0,3.94,3.19,7.13,7.13,7.13c1.91,0.01,3.65-0.76,4.93-1.99
			c0.04,0.04,0.06,0.1,0.04,0.24c-0.3,1.76-0.85,8.18,5.86,10.78c2.69,1.04,4.98,0.27,6.88-1.06c0.57-0.4,0.66-0.23,0.58,0.3
			c-0.24,1.65,0.06,5.18,5.01,7.18c3.77,1.53,5.99-0.04,7.45-1.39c0.63-0.58,0.81-0.49,0.84,0.41c0.18,4.77,4.14,8.56,8.96,8.56
			c4.96,0,8.97-4.01,8.98-8.96C109.1,102.04,105.09,98.08,100.13,98.02z"/>
	</g>
	<path class="st0" d="M164.82,77.93c-10.08-8.8-33.39-29.06-39.7-33.8c-3.61-2.71-6.07-4.14-8.22-4.79
		c-0.97-0.29-2.31-0.63-4.04-0.63c-1.61,0-3.33,0.29-5.13,0.86c-4.08,1.29-8.14,4.52-12.07,7.64l-0.2,0.16
		c-3.66,2.91-7.45,5.92-10.31,6.56c-1.25,0.28-2.53,0.43-3.82,0.43c-3.21-0.01-6.09-0.93-7.17-2.31c-0.18-0.23-0.06-0.6,0.35-1.13
		l0.05-0.07l8.87-9.56c6.95-6.95,13.51-13.51,28.62-13.86c0.25-0.01,0.51-0.01,0.76-0.01c9.4,0.01,18.8,4.22,19.85,4.7
		c8.82,4.3,17.92,6.48,27.07,6.49c9.53,0,19.37-2.36,29.71-7.12c-1.15-0.97-2.36-1.92-3.59-2.85c-9.09,3.94-17.74,5.93-26.09,5.93
		c-8.53-0.01-17.06-2.06-25.33-6.09c-0.44-0.21-10.82-5.1-21.61-5.11c-0.28,0-0.57,0.01-0.85,0.01c-12.69,0.3-19.84,4.8-24.64,8.75
		c-4.68,0.11-8.71,1.24-12.3,2.24c-3.2,0.89-5.97,1.66-8.67,1.66c-1.11,0-3.11-0.1-3.29-0.11c-3.1-0.09-18.72-3.93-31.15-8.63
		c-1.27,0.9-2.49,1.82-3.68,2.77c12.98,5.32,28.79,9.44,33.77,9.76c1.39,0.09,2.87,0.25,4.35,0.25c3.3,0,6.59-0.93,9.78-1.82
		c1.88-0.53,3.96-1.1,6.14-1.52c-0.58,0.57-1.16,1.15-1.75,1.74l-9.02,9.75c-0.71,0.72-2.25,2.63-1.23,4.98
		c0.4,0.95,1.22,1.86,2.37,2.63c2.15,1.45,6,2.42,9.57,2.43c1.35,0,2.64-0.13,3.82-0.4c3.78-0.85,7.74-4,11.94-7.34
		c3.35-2.66,8.1-6.03,11.74-7.02c1.01-0.28,2.26-0.45,3.27-0.45c0.3,0,0.58,0.01,0.85,0.05c2.4,0.31,4.73,1.12,8.88,4.24
		c7.4,5.56,40.14,34.2,40.46,34.48c0.02,0.02,2.11,1.82,1.96,4.81c-0.08,1.67-1.01,3.15-2.61,4.18c-1.4,0.88-2.84,1.34-4.3,1.34
		c-2.19,0-3.69-1.03-3.79-1.1c-0.12-0.1-11.34-10.38-15.46-13.84c-0.66-0.54-1.3-1.03-1.94-1.03c-0.34,0-0.65,0.14-0.86,0.4
		c-0.65,0.8,0.08,1.91,0.93,2.64l13.1,13.17c0.02,0.02,1.63,1.53,1.81,3.55c0.1,2.18-0.94,4.01-3.11,5.43
		c-1.55,1.02-3.11,1.53-4.65,1.53c-2.01,0-3.42-0.92-3.74-1.13l-1.88-1.85c-3.43-3.38-6.98-6.87-9.58-9.04
		c-0.63-0.53-1.31-1.01-1.95-1.01c-0.32,0-0.6,0.12-0.83,0.35c-0.3,0.33-0.5,0.92,0.24,1.9c0.3,0.4,0.66,0.74,0.66,0.74l9.56,10.74
		c0.08,0.1,1.97,2.34,0.21,4.58l-0.34,0.43c-0.29,0.32-0.6,0.61-0.89,0.85c-1.63,1.34-3.81,1.48-4.67,1.48
		c-0.46,0-0.91-0.04-1.3-0.11c-0.94-0.17-1.58-0.43-1.88-0.8l-0.12-0.12c-0.52-0.54-5.34-5.46-9.33-8.79c-0.53-0.44-1.18-1-1.86-1
		c-0.33,0-0.63,0.13-0.86,0.39c-0.79,0.87,0.4,2.16,0.9,2.63l8.16,8.99c-0.01,0.08-0.11,0.27-0.31,0.55
		c-0.29,0.4-1.28,1.39-4.24,1.76c-0.35,0.04-0.72,0.06-1.08,0.06c-3.05,0-6.3-1.48-7.98-2.37c0.76-1.61,1.16-3.39,1.16-5.17
		c0-6.71-5.45-12.17-12.16-12.18c-0.14,0-0.29,0.01-0.44,0.01c0.22-3.06-0.21-8.87-6.17-11.42c-1.71-0.74-3.42-1.12-5.09-1.12
		c-1.3,0-2.55,0.22-3.73,0.67c-1.23-2.4-3.28-4.14-5.95-5.06c-1.48-0.51-2.95-0.77-4.36-0.77c-2.48,0-4.76,0.73-6.8,2.18
		c-1.95-2.42-4.9-3.86-8-3.86c-2.71,0-5.33,1.09-7.26,3c-2.54-1.94-12.61-8.33-39.56-14.45c-1.31-0.3-4.3-1.15-6.14-1.69
		c-0.3,1.46-0.54,2.93-0.69,4.42c0,0,4.97,1.19,5.95,1.41c27.53,6.11,36.63,12.47,38.16,13.67c-0.52,1.25-0.79,2.6-0.79,3.96
		c0,5.68,4.62,10.32,10.31,10.32c0.64,0,1.27-0.05,1.89-0.17c0.86,4.18,3.6,7.36,7.78,8.98c1.22,0.47,2.46,0.71,3.67,0.71
		c0.78,0,1.58-0.1,2.35-0.29c0.77,1.96,2.51,4.41,6.4,5.99c1.36,0.55,2.73,0.84,4.05,0.84c1.08,0,2.14-0.19,3.15-0.56
		c1.86,4.54,6.3,7.55,11.24,7.55c3.28,0,6.42-1.33,8.72-3.69c1.96,1.09,6.11,3.07,10.3,3.07c0.54,0,1.05-0.04,1.56-0.1
		c4.16-0.53,6.1-2.15,6.99-3.42c0.16-0.22,0.3-0.45,0.43-0.7c0.98,0.28,2.06,0.51,3.3,0.51c2.27,0,4.45-0.77,6.66-2.38
		c2.16-1.57,3.7-3.8,3.92-5.71c0-0.02,0.01-0.05,0.01-0.08c0.73,0.15,1.48,0.23,2.23,0.23c2.34,0,4.64-0.73,6.84-2.17
		c4.24-2.78,4.98-6.41,4.91-8.79c0.74,0.16,1.5,0.24,2.25,0.24c2.2,0,4.35-0.66,6.41-1.97c2.63-1.68,4.21-4.25,4.45-7.25
		c0.17-2.04-0.34-4.09-1.41-5.85c7.1-3.06,23.34-8.99,42.47-13.3c-0.11-1.48-0.33-2.95-0.59-4.4
		C186.42,68.53,169.15,76,164.82,77.93z M100.13,115.32c-4.49,0-8.15-3.49-8.31-7.94c-0.01-0.38-0.05-1.4-0.91-1.4
		c-0.35,0-0.66,0.21-1.01,0.53c-0.99,0.92-2.25,1.85-4.08,1.85c-0.84,0-1.74-0.19-2.69-0.58c-4.75-1.92-4.81-5.18-4.62-6.49
		c0.05-0.35,0.07-0.71-0.17-1l-0.29-0.26h-0.3c-0.24,0-0.49,0.1-0.83,0.34c-1.37,0.96-2.69,1.43-4.03,1.43
		c-0.74,0-1.49-0.15-2.25-0.44c-6.25-2.43-5.75-8.33-5.45-10.11c0.05-0.36-0.04-0.64-0.27-0.82l-0.44-0.36l-0.41,0.4
		c-1.22,1.17-2.81,1.81-4.49,1.81c-3.58,0-6.49-2.91-6.49-6.49c0-3.58,2.92-6.49,6.5-6.48c3.23,0,5.99,2.43,6.4,5.66l0.22,1.74
		l0.96-1.47c0.11-0.17,2.73-4.14,7.55-4.13c0.92,0,1.86,0.15,2.82,0.44c3.84,1.17,4.49,4.66,4.59,6.11
		c0.07,0.85,0.67,0.89,0.79,0.89c0.33,0,0.58-0.21,0.75-0.39c0.72-0.76,2.3-2.01,4.78-2.01c1.13,0,2.33,0.27,3.58,0.81
		c6.11,2.62,3.34,10.38,3.3,10.46c-0.53,1.29-0.54,1.85-0.05,2.18l0.24,0.11h0.18c0.28,0,0.62-0.12,1.18-0.31
		c0.83-0.29,2.09-0.72,3.26-0.72h0c4.6,0.05,8.34,3.79,8.33,8.34C108.46,111.59,104.72,115.32,100.13,115.32z"/>
</g>
</svg>
